<?xml version="1.0" encoding="utf-8"?>
<!-- Generator: Adobe Illustrator 26.5.0, SVG Export Plug-In . SVG Version: 6.00 Build 0)  -->
<svg version="1.1" id="Layer_1" xmlns="http://www.w3.org/2000/svg" xmlns:xlink="http://www.w3.org/1999/xlink" x="0px" y="0px"
	 viewBox="0 0 435.3 131.8" style="enable-background:new 0 0 435.3 131.8;" xml:space="preserve">
<style type="text/css">
	.st0{fill-opacity:1.000000e-02;}
	.st1{fill:#1Db954;}
</style>
<rect class="st0" width="430" height="132"/>
<path class="st1" d="M104,58.5c-21-12.6-55.7-13.8-75.8-7.6c-0.8,0.2-1.6,0.3-2.4,0.2c-0.8-0.1-1.6-0.3-2.3-0.7
	c-0.7-0.4-1.3-0.9-1.8-1.5c-0.5-0.6-0.9-1.3-1.1-2.1c-0.5-1.6-0.3-3.2,0.4-4.7c0.8-1.4,2.1-2.5,3.6-3c23-7.1,61.4-5.7,85.6,8.8
	c2.9,1.7,3.9,5.5,2.1,8.4c-0.4,0.7-0.9,1.3-1.6,1.8c-0.6,0.5-1.4,0.8-2.1,1c-0.8,0.2-1.6,0.2-2.4,0.1
	C105.5,59.2,104.7,58.9,104,58.5z M103.3,77.2c-0.3,0.6-0.8,1.1-1.3,1.5c-0.5,0.4-1.2,0.7-1.8,0.8c-0.6,0.2-1.3,0.2-2,0.1
	c-0.7-0.1-1.3-0.3-1.9-0.7c-17.5-10.9-44.3-14-65-7.7c-0.6,0.2-1.3,0.3-2,0.2c-0.7-0.1-1.3-0.3-1.9-0.6c-0.6-0.3-1.1-0.7-1.5-1.3
	c-0.4-0.5-0.7-1.1-0.9-1.8c-0.4-1.3-0.3-2.7,0.4-3.9c0.6-1.2,1.7-2.1,3-2.5c23.7-7.3,53.2-3.7,73.3,8.7
	C104.1,71.6,104.8,74.8,103.3,77.2z M95.4,95.1c-0.3,0.5-0.6,0.9-1.1,1.2c-0.4,0.3-0.9,0.5-1.4,0.7c-0.5,0.1-1.1,0.1-1.6,0.1
	c-0.5-0.1-1-0.3-1.5-0.6C74.4,87,55.2,84.9,32.5,90.1c-0.5,0.1-1.1,0.1-1.6,0s-1-0.3-1.5-0.6c-0.5-0.3-0.8-0.7-1.2-1.1
	c-0.3-0.4-0.5-0.9-0.6-1.5c-0.2-1.1-0.1-2.2,0.5-3.1c0.6-0.9,1.5-1.6,2.5-1.8c24.9-5.7,46.2-3.3,63.4,7.3c0.9,0.6,1.6,1.5,1.8,2.5
	C96.1,93.1,95.9,94.2,95.4,95.1z M65.4,0.2C29.4,0.2,0.2,29.6,0.2,66c0,36.3,29.2,65.8,65.2,65.8c36,0,65.2-29.5,65.2-65.8
	C130.7,29.6,101.5,0.2,65.4,0.2L65.4,0.2z M177.7,60.9c-11.3-2.7-13.3-4.6-13.3-8.6c0-3.8,3.5-6.3,8.8-6.3c5.1,0,10.1,1.9,15.4,5.9
	c0.2,0.1,0.4,0.2,0.6,0.1c0.1,0,0.2-0.1,0.3-0.1c0.1-0.1,0.2-0.1,0.2-0.2l5.5-7.8c0.1-0.2,0.2-0.3,0.1-0.5c0-0.2-0.1-0.4-0.3-0.5
	c-6.3-5.1-13.4-7.6-21.6-7.6c-12.2,0-20.7,7.4-20.7,17.9c0,11.3,7.3,15.3,20,18.4c10.8,2.5,12.6,4.6,12.6,8.4c0,4.2-3.7,6.7-9.6,6.7
	c-6.6,0-11.9-2.2-17.9-7.5c-0.1-0.1-0.2-0.1-0.3-0.1c-0.1,0-0.2,0-0.3,0c-0.1,0-0.2,0-0.3,0.1c-0.1,0-0.2,0.1-0.2,0.2l-6.2,7.4
	c-0.1,0.1-0.2,0.3-0.2,0.5c0,0.2,0.1,0.4,0.2,0.5c7,6.3,15.6,9.6,24.8,9.6c13.1,0,21.6-7.2,21.6-18.4
	C197,69.5,191.4,64.3,177.7,60.9z M236.2,73.6c0,8-4.9,13.5-11.9,13.5c-6.9,0-12.1-5.8-12.1-13.5c0-7.7,5.2-13.5,12.1-13.5
	C231.2,60,236.2,65.7,236.2,73.6z M226.7,49.7c-5.7,0-10.3,2.3-14.2,6.9v-5.2c0-0.2-0.1-0.4-0.2-0.5c-0.1-0.1-0.3-0.2-0.5-0.2h-10.1
	c-0.1,0-0.2,0-0.3,0.1c-0.1,0-0.2,0.1-0.2,0.2c-0.1,0.1-0.1,0.2-0.2,0.2c0,0.1-0.1,0.2-0.1,0.3v57.8c0,0.4,0.3,0.7,0.7,0.7h10.1
	c0.2,0,0.4-0.1,0.5-0.2c0.1-0.1,0.2-0.3,0.2-0.5V91c3.8,4.4,8.5,6.5,14.2,6.5c10.6,0,21.2-8.2,21.2-23.9
	C247.9,57.9,237.2,49.7,226.7,49.7z M275.3,87.2c-7.2,0-12.7-5.9-12.7-13.6c0-7.8,5.3-13.5,12.5-13.5c7.3,0,12.8,5.9,12.8,13.6
	C287.9,81.6,282.6,87.2,275.3,87.2z M275.3,49.7c-13.6,0-24.2,10.6-24.2,24c0,13.3,10.6,23.8,24.1,23.8c13.6,0,24.3-10.5,24.3-24
	C299.5,60.2,288.9,49.7,275.3,49.7L275.3,49.7z M328.5,50.7h-11.1V39.2c0-0.1,0-0.2-0.1-0.3c0-0.1-0.1-0.2-0.2-0.2
	c-0.1-0.1-0.1-0.1-0.2-0.2c-0.1,0-0.2-0.1-0.3-0.1h-10.1c-0.2,0-0.4,0.1-0.5,0.2c-0.1,0.1-0.2,0.3-0.2,0.5v11.4H301
	c-0.1,0-0.2,0-0.3,0.1c-0.1,0-0.2,0.1-0.2,0.2c-0.1,0.1-0.1,0.2-0.2,0.2c0,0.1-0.1,0.2-0.1,0.3v8.7c0,0.4,0.3,0.7,0.7,0.7h4.9v22.6
	c0,9.1,4.5,13.8,13.4,13.8c3.6,0,6.6-0.8,9.4-2.4c0.1-0.1,0.2-0.2,0.3-0.3c0.1-0.1,0.1-0.2,0.1-0.4v-8.3c0-0.1,0-0.3-0.1-0.4
	c-0.1-0.1-0.2-0.2-0.3-0.3s-0.2-0.1-0.4-0.1c-0.1,0-0.3,0-0.4,0.1c-1.9,1-3.8,1.4-5.9,1.4c-3.2,0-4.7-1.5-4.7-4.8v-21h11.1
	c0.1,0,0.2,0,0.3-0.1c0.1,0,0.2-0.1,0.2-0.2c0.1-0.1,0.1-0.2,0.2-0.2c0-0.1,0.1-0.2,0.1-0.3v-8.7c0-0.1,0-0.2-0.1-0.3
	s-0.1-0.2-0.2-0.2c-0.1-0.1-0.1-0.1-0.2-0.2C328.7,50.7,328.6,50.6,328.5,50.7L328.5,50.7z M367.2,50.7v-1.4c0-4.1,1.6-6,5.1-6
	c2.1,0,3.8,0.4,5.7,1.1c0.1,0,0.2,0,0.3,0c0.1,0,0.2-0.1,0.3-0.1c0.1-0.1,0.2-0.2,0.2-0.3c0.1-0.1,0.1-0.2,0.1-0.3v-8.6
	c0-0.2,0-0.3-0.1-0.4c-0.1-0.1-0.2-0.2-0.4-0.3c-2.7-0.8-5.5-1.2-8.4-1.2c-9.3,0-14.2,5.3-14.2,15.3v2.2h-4.8
	c-0.2,0-0.4,0.1-0.5,0.2c-0.1,0.1-0.2,0.3-0.2,0.5v8.8c0,0.4,0.3,0.7,0.7,0.7h4.9v34.9c0,0.4,0.3,0.7,0.7,0.7h10.1
	c0.4,0,0.7-0.3,0.7-0.7V60.9h9.4l14.4,34.9c-1.6,3.7-3.3,4.4-5.4,4.4c-1.8,0-3.6-0.5-5.6-1.6c-0.1,0-0.2-0.1-0.3-0.1
	c-0.1,0-0.2,0-0.3,0c-0.1,0-0.2,0.1-0.3,0.2s-0.1,0.2-0.2,0.2l-3.4,7.6c-0.1,0.2-0.1,0.4,0,0.5c0.1,0.2,0.2,0.3,0.3,0.4
	c3.3,1.9,7,2.8,10.8,2.8c7.4,0,11.6-3.5,15.2-12.9l17.5-45.6c0-0.1,0.1-0.2,0-0.4c0-0.1-0.1-0.2-0.1-0.3c-0.1-0.1-0.2-0.2-0.3-0.2
	c-0.1-0.1-0.2-0.1-0.3-0.1h-10.5c-0.2,0-0.3,0-0.4,0.1c-0.1,0.1-0.2,0.2-0.3,0.4l-10.8,31l-11.8-31c-0.1-0.1-0.1-0.3-0.3-0.3
	c-0.1-0.1-0.3-0.1-0.4-0.1L367.2,50.7L367.2,50.7z M344.8,50.7h-10.1c-0.2,0-0.4,0.1-0.5,0.2c-0.1,0.1-0.2,0.3-0.2,0.5v44.4
	c0,0.4,0.3,0.7,0.7,0.7h10.1c0.4,0,0.7-0.3,0.7-0.7V51.4c0-0.2-0.1-0.4-0.2-0.5C345.1,50.7,344.9,50.7,344.8,50.7z M339.8,30.4
	c-1.9,0-3.8,0.8-5.1,2.2c-1.4,1.4-2.1,3.2-2.1,5.1c0,1,0.2,1.9,0.5,2.8c0.4,0.9,0.9,1.7,1.6,2.4c0.7,0.7,1.5,1.2,2.4,1.6
	c0.9,0.4,1.8,0.6,2.8,0.6c1.9,0,3.8-0.8,5.1-2.2c1.4-1.4,2.1-3.2,2.1-5.1C347,33.7,343.8,30.4,339.8,30.4L339.8,30.4z M428.5,55.1
	h-1.8v2.4h1.8c0.9,0,1.5-0.5,1.5-1.2C430,55.5,429.5,55.1,428.5,55.1z M429.7,58.5l2,2.8H430l-1.8-2.6h-1.6v2.6h-1.4v-7.5h3.3
	c1.7,0,2.9,0.9,2.9,2.4c0,0.5-0.1,1-0.5,1.5C430.7,58,430.2,58.3,429.7,58.5z M428.2,51.3c-3.6,0-6.4,2.9-6.4,6.5
	c0,3.6,2.7,6.4,6.4,6.4c3.6,0,6.4-2.9,6.4-6.5C434.5,54.2,431.8,51.3,428.2,51.3z M428.1,64.9c-0.9,0-1.9-0.2-2.7-0.6
	c-0.9-0.4-1.6-0.9-2.3-1.6c-0.7-0.7-1.2-1.5-1.5-2.3c-0.4-0.9-0.5-1.8-0.5-2.7c0-3.9,3.1-7.2,7.1-7.2c0.9,0,1.9,0.2,2.7,0.6
	c0.9,0.4,1.6,0.9,2.3,1.6c0.7,0.7,1.2,1.5,1.5,2.3c0.4,0.9,0.5,1.8,0.5,2.7C435.3,61.6,432.1,64.9,428.1,64.9L428.1,64.9z"/>
</svg>
